<svg width="10" height="11" viewBox="0 0 10 11" fill="none" xmlns="http://www.w3.org/2000/svg">
<path d="M4.89434 2.3606e-07C4.26984 -0.000232575 3.65736 0.171744 3.12425 0.497021C2.59114 0.822298 2.15806 1.28828 1.8726 1.84373C1.58714 2.39918 1.46038 3.02258 1.50624 3.6454C1.5521 4.26822 1.76882 4.86633 2.13255 5.37398L4.63411 9.27746C4.66254 9.32032 4.70113 9.35548 4.74645 9.3798C4.79176 9.40412 4.84239 9.41684 4.89382 9.41684C4.94525 9.41684 4.99588 9.40412 5.0412 9.3798C5.08651 9.35548 5.12511 9.32032 5.15354 9.27746L7.666 5.36047C8.02606 4.8521 8.2394 4.25451 8.28268 3.63304C8.32595 3.01158 8.19751 2.39018 7.91138 1.83681C7.62526 1.28344 7.19248 0.819398 6.66037 0.495443C6.12826 0.171488 5.51731 9.21933e-05 4.89434 2.3606e-07ZM4.89434 4.94182C4.58892 4.94182 4.29035 4.85125 4.0364 4.68156C3.78245 4.51188 3.58452 4.2707 3.46764 3.98852C3.35076 3.70635 3.32017 3.39585 3.37976 3.0963C3.43935 2.79674 3.58642 2.52158 3.80239 2.30561C4.01836 2.08964 4.29352 1.94257 4.59307 1.88298C4.89263 1.8234 5.20313 1.85398 5.4853 1.97086C5.76748 2.08774 6.00866 2.28567 6.17834 2.53962C6.34803 2.79357 6.43859 3.09214 6.43859 3.39756C6.43818 3.807 6.27535 4.19954 5.98584 4.48906C5.69632 4.77857 5.30378 4.9414 4.89434 4.94182Z" fill="black"/>
<path d="M7.30856 7.09961L5.7534 9.53104C5.66096 9.67505 5.53382 9.79351 5.38366 9.87556C5.2335 9.95761 5.06512 10.0006 4.894 10.0006C4.72289 10.0006 4.55451 9.95761 4.40435 9.87556C4.25418 9.79351 4.12705 9.67505 4.03461 9.53104L2.47634 7.09961C1.10557 7.41646 0.260986 7.99717 0.260986 8.6906C0.260986 9.89411 2.65034 10.5439 4.89374 10.5439C7.13714 10.5439 9.5265 9.89463 9.5265 8.6906C9.52702 7.99457 8.68088 7.41126 7.30856 7.09961Z" fill="black"/>
</svg>
