<svg width="27" height="24" viewBox="0 0 27 24" fill="none" xmlns="http://www.w3.org/2000/svg">
<path d="M17.1543 12.2998H21.9543" stroke="#A9C0FF" stroke-width="1.5" stroke-linecap="round" stroke-linejoin="round"/>
<path d="M19.5547 23.1H7.55469C2.75469 23.1 1.55469 21.9 1.55469 17.1V7.5C1.55469 2.7 2.75469 1.5 7.55469 1.5H19.5547C24.3547 1.5 25.5547 2.7 25.5547 7.5V17.1C25.5547 21.9 24.3547 23.1 19.5547 23.1Z" stroke="#A9C0FF" stroke-width="1.5" stroke-linecap="round" stroke-linejoin="round"/>
<path d="M15.9551 7.5H21.9551" stroke="#A9C0FF" stroke-width="1.5" stroke-linecap="round" stroke-linejoin="round"/>
<path d="M19.5547 17.0996H21.9547" stroke="#A9C0FF" stroke-width="1.5" stroke-linecap="round" stroke-linejoin="round"/>
<path d="M9.35462 11.4475C10.5542 11.4475 11.5266 10.4751 11.5266 9.27552C11.5266 8.07596 10.5542 7.10352 9.35462 7.10352C8.15506 7.10352 7.18262 8.07596 7.18262 9.27552C7.18262 10.4751 8.15506 11.4475 9.35462 11.4475Z" stroke="#A9C0FF" stroke-width="1.5" stroke-linecap="round" stroke-linejoin="round"/>
<path d="M13.5543 17.4955C13.3863 15.7555 12.0063 14.3875 10.2663 14.2315C9.6663 14.1715 9.0543 14.1715 8.4423 14.2315C6.7023 14.3995 5.3223 15.7555 5.1543 17.4955" stroke="#A9C0FF" stroke-width="1.5" stroke-linecap="round" stroke-linejoin="round"/>
</svg>
