<svg width="17" height="17" viewBox="0 0 17 17" fill="none" xmlns="http://www.w3.org/2000/svg">
<g clip-path="url(#clip0_1740_6597)">
<path d="M7.62928 6.45447L0.565404 13.175C0.524364 13.2142 0.500873 13.2686 0.500024 13.3258C0.499175 13.3834 0.521251 13.4383 0.560875 13.479L1.68932 14.62C1.72979 14.6607 1.78413 14.683 1.84074 14.6821C1.89735 14.6813 1.9514 14.6572 1.99018 14.6155L8.63828 7.4742C8.71555 7.39091 8.71385 7.26041 8.63376 7.17913L7.92108 6.45847C7.84099 6.37777 7.71193 6.37548 7.62928 6.4539V6.45447Z" fill="white"/>
<path d="M14.419 14.4738C14.3757 14.4306 14.3185 14.4062 14.2577 14.4062H7.26512C7.20511 14.4062 7.14653 14.4311 7.10407 14.4738C7.06134 14.517 7.03728 14.5765 7.03728 14.6369V15.4251H6.23913V16.2127H5.02295V17.0004H16.4998V16.2127H15.2839V15.4251H14.4858V14.6369C14.4858 14.5757 14.462 14.5176 14.419 14.4738Z" fill="white"/>
<path d="M6.58838 4.28879L10.6493 8.39519L13.4304 5.5827C13.4581 5.55465 13.4887 5.53261 13.5192 5.50914L9.44246 1.38672C9.41953 1.41734 9.39746 1.44854 9.37 1.4763L6.58838 4.28879Z" fill="white"/>
<path d="M13.5191 5.50796C13.4888 5.53142 13.4583 5.55346 13.4303 5.58151L10.6492 8.394L10.6099 8.43349C10.2759 8.77121 10.2759 9.319 10.6099 9.65671C10.9438 9.99414 11.4853 9.99414 11.8192 9.65671L14.6396 6.80416C14.9736 6.46644 14.9736 5.91923 14.6396 5.58151C14.3334 5.27156 13.8545 5.24952 13.5191 5.50796Z" fill="#77C6FF"/>
<path d="M8.16073 0.253287L5.34033 3.10527C5.00635 3.44299 5.00635 3.99077 5.34033 4.32849C5.6743 4.66592 6.21574 4.66592 6.54943 4.32849L6.58849 4.28842L9.37012 1.47593C9.39757 1.44817 9.41965 1.41698 9.44257 1.38635C9.69843 1.04721 9.67607 0.563242 9.37012 0.253287C9.03614 -0.084429 8.4947 -0.084429 8.16073 0.253287Z" fill="#77C6FF"/>
</g>
<defs>
<clipPath id="clip0_1740_6597">
<rect width="16" height="17" fill="white" transform="translate(0.5)"/>
</clipPath>
</defs>
</svg>
