<svg width="25" height="23" viewBox="0 0 25 23" fill="none" xmlns="http://www.w3.org/2000/svg">
<path d="M10.657 14.0261C10.3981 14.0261 10.1011 13.8988 9.92718 13.7291L6.45652 10.2924C6.24437 10.0803 6.15527 9.82568 6.15527 9.57111C6.15527 9.31654 6.28256 9.01953 6.45652 8.84982L7.22872 8.0861C7.31358 8.00125 7.48753 8.00125 7.61482 8.0861C7.69968 8.17096 7.69968 8.34068 7.61482 8.46796L6.84262 9.23168C6.75776 9.31654 6.71533 9.44382 6.71533 9.57111C6.71533 9.69839 6.75776 9.82568 6.84262 9.91054L10.3133 13.3473C10.3981 13.4321 10.5254 13.4745 10.657 13.4745C10.7885 13.4745 10.9158 13.4321 11.0006 13.3473L11.7728 12.5835C11.8577 12.4987 12.0316 12.4987 12.1589 12.5835C12.2438 12.6684 12.2438 12.8381 12.1589 12.9654L11.3867 13.7291C11.217 13.9413 10.9158 14.0261 10.657 14.0261Z" fill="#A9C0FF" stroke="#A9C0FF" stroke-width="0.5" stroke-miterlimit="10"/>
<path d="M8.55758 7.40666C8.47272 7.40666 8.43029 7.36423 8.38786 7.3218C8.303 7.23695 8.303 7.06723 8.38786 6.93994L12.1555 3.20622C12.2404 3.12136 12.4143 3.12136 12.5416 3.20622C12.6265 3.29108 12.6265 3.46079 12.5416 3.58808L8.76972 7.3218C8.72729 7.40666 8.64243 7.40666 8.55758 7.40666Z" fill="#A9C0FF" stroke="#A9C0FF" stroke-width="0.5" stroke-miterlimit="10"/>
<path d="M15.9707 9.10344C15.8858 9.10344 15.8434 9.06101 15.8009 9.01858C15.7161 8.93372 15.7161 8.76401 15.8009 8.63672L16.7429 7.70329C16.8277 7.61843 17.0017 7.61843 17.129 7.70329C17.2138 7.78815 17.2138 7.95786 17.129 8.08515L16.187 9.01858C16.1022 9.06101 16.0173 9.10344 15.9749 9.10344H15.9707Z" fill="#A9C0FF" stroke="#A9C0FF" stroke-width="0.5" stroke-miterlimit="10"/>
<path d="M13.0976 11.9042C13.0128 11.9042 12.9703 11.8618 12.9279 11.8194C12.843 11.7345 12.843 11.5648 12.9279 11.4375L13.8698 10.5041C13.9547 10.4192 14.1286 10.4192 14.2559 10.5041C14.3832 10.5889 14.3408 10.7586 14.2559 10.8859L13.314 11.8194C13.2716 11.9042 13.1867 11.9042 13.1019 11.9042H13.0976Z" fill="#A9C0FF" stroke="#A9C0FF" stroke-width="0.5" stroke-miterlimit="10"/>
<path d="M22.5672 18.8629C22.1387 18.8629 21.7526 18.6932 21.4089 18.3962L13.8693 10.8863C13.7844 10.8015 13.7844 10.6317 13.8693 10.5045L15.7531 8.63759C15.7956 8.59516 15.8804 8.55273 15.9229 8.55273C15.9653 8.55273 16.0501 8.59516 16.0926 8.63759L23.6364 16.105C23.9376 16.402 24.1073 16.8263 24.1073 17.2506C24.1073 17.6749 23.9376 18.0568 23.6364 18.3962C23.3776 18.6932 22.9915 18.8629 22.5629 18.8629H22.5672ZM14.4251 10.7166L21.795 18.0143C22.0071 18.2265 22.2659 18.3113 22.5672 18.3113C22.8684 18.3113 23.123 18.184 23.3394 18.0143C23.5515 17.8022 23.6406 17.5476 23.6406 17.2506C23.6406 16.9536 23.5133 16.699 23.3394 16.4869L15.9695 9.23159L14.4251 10.7166Z" fill="#A9C0FF" stroke="#A9C0FF" stroke-width="0.5" stroke-miterlimit="10"/>
<path d="M18.0268 7.02487C17.942 7.02487 17.8995 6.98244 17.8571 6.94001C17.7723 6.85516 17.7723 6.68544 17.8571 6.55816L18.6293 5.79444C18.7142 5.70958 18.7566 5.5823 18.7566 5.45501C18.7566 5.32773 18.7142 5.20044 18.6293 5.11558L15.1544 1.67886C15.0696 1.594 14.9423 1.55157 14.8107 1.55157C14.6792 1.55157 14.5519 1.594 14.4671 1.67886L13.6949 2.44258C13.61 2.52743 13.436 2.52743 13.3088 2.44258C13.2239 2.35772 13.2239 2.188 13.3088 2.06072L14.081 1.297C14.2931 1.08486 14.5519 1 14.8107 1C15.0696 1 15.3666 1.12729 15.5405 1.297L19.0112 4.73372C19.2233 4.94587 19.3124 5.20044 19.3124 5.45501C19.3124 5.70958 19.1851 6.00658 19.0112 6.1763L18.239 6.94001C18.1965 7.02487 18.1117 7.02487 18.0268 7.02487Z" fill="#A9C0FF" stroke="#A9C0FF" stroke-width="0.5" stroke-miterlimit="10"/>
<path d="M12.5409 13.3462C12.3287 13.3462 12.0699 13.2613 11.9426 13.0916L7.1015 8.33962C6.75783 8.00019 6.75783 7.44862 7.1015 7.10919L7.40275 6.81219C7.57246 6.64247 7.78885 6.55762 8.00099 6.55762C8.21314 6.55762 8.47195 6.64247 8.59924 6.81219L8.72652 6.93948L13.3979 11.5642C13.7416 11.9036 13.7416 12.4552 13.3979 12.7946L13.1858 13.0916C13.0161 13.2613 12.7997 13.3462 12.5451 13.3462H12.5409ZM7.99675 7.10919C7.91189 7.10919 7.82703 7.15162 7.73793 7.19405L7.47912 7.49105C7.35183 7.61833 7.35183 7.83048 7.47912 7.95776L12.3202 12.7098C12.3627 12.7522 12.4475 12.7946 12.579 12.7946C12.6639 12.7946 12.7488 12.7522 12.8379 12.7098L13.1391 12.4128C13.2664 12.2855 13.2664 12.0733 13.1391 11.9461L13.0118 11.8188L8.25556 7.19405C8.17071 7.15162 8.08585 7.10919 7.99675 7.10919Z" fill="#A9C0FF" stroke="#A9C0FF" stroke-width="0.5" stroke-miterlimit="10"/>
<path d="M17.4666 8.4673C17.2503 8.4673 16.9957 8.38244 16.8684 8.21273L12.0273 3.46072C11.6836 3.12129 11.6836 2.56971 12.0273 2.23028L12.3285 1.93328C12.4982 1.76357 12.7146 1.67871 12.9268 1.67871C13.1389 1.67871 13.3977 1.76357 13.525 1.93328L18.3661 6.72772C18.5358 6.89744 18.6249 7.10958 18.6249 7.32172C18.6249 7.53387 18.5401 7.78844 18.3661 7.91573L18.0649 8.21273C17.9376 8.38244 17.7212 8.4673 17.4666 8.4673ZM12.9268 2.23028C12.8419 2.23028 12.7571 2.27271 12.668 2.31514L12.3667 2.61214C12.2394 2.73943 12.2394 2.95157 12.3667 3.07886L17.2078 7.8733C17.2503 7.91573 17.3351 7.95816 17.4666 7.95816C17.5982 7.95816 17.6364 7.91573 17.7255 7.8733L18.0267 7.5763C18.0691 7.53387 18.1116 7.44901 18.1116 7.32172C18.1116 7.23687 18.0691 7.15201 18.0267 7.06715L13.1813 2.31514C13.0965 2.27271 13.0116 2.23028 12.9225 2.23028H12.9268Z" fill="#A9C0FF" stroke="#A9C0FF" stroke-width="0.5" stroke-miterlimit="10"/>
<path d="M16.013 21.8754C15.8857 21.8754 15.7542 21.7481 15.7542 21.6208V20.7722C15.7542 20.0934 15.1984 19.4994 14.4686 19.4994H12.7969C12.6696 19.4994 12.5381 19.3721 12.5381 19.2448C12.5381 19.1175 12.6654 18.9902 12.7969 18.9902H14.4686C15.4529 18.9902 16.2676 19.7964 16.2676 20.7722V21.6208C16.2676 21.7905 16.1827 21.8754 16.0088 21.8754H16.013Z" fill="#A9C0FF" stroke="#A9C0FF" stroke-width="0.5" stroke-miterlimit="10"/>
<path d="M1.82717 21.8754C1.69989 21.8754 1.56836 21.7481 1.56836 21.6208V20.7722C1.56836 19.7964 2.38299 18.9902 3.36734 18.9902H5.03903C5.16631 18.9902 5.29784 19.1175 5.29784 19.2448C5.29784 19.3721 5.17055 19.4994 5.03903 19.4994H3.36734C2.67999 19.4994 2.08175 20.051 2.08175 20.7722V21.6208C2.08175 21.7905 1.95446 21.8754 1.82293 21.8754H1.82717Z" fill="#A9C0FF" stroke="#A9C0FF" stroke-width="0.5" stroke-miterlimit="10"/>
<path d="M12.7999 19.4984H5.04397C4.91669 19.4984 4.78516 19.3711 4.78516 19.2439V18.3953C4.78516 17.4194 5.59979 16.6133 6.58413 16.6133H11.298C12.2823 16.6133 13.0969 17.4194 13.0969 18.3953V19.2439C13.0545 19.3711 12.9696 19.4984 12.7957 19.4984H12.7999ZM5.30279 18.9893H12.5411V18.3953C12.5411 17.7164 11.9853 17.1224 11.2555 17.1224H6.5417C5.85436 17.1224 5.25611 17.674 5.25611 18.3953V18.9893H5.29854H5.30279Z" fill="#A9C0FF" stroke="#A9C0FF" stroke-width="0.5" stroke-miterlimit="10"/>
<path d="M16.8393 21.8744H0.724872C0.614557 21.8744 0.5 21.7471 0.5 21.6198C0.5 21.4925 0.610315 21.3652 0.724872 21.3652H16.8393C16.9496 21.3652 17.0642 21.4925 17.0642 21.6198C17.0642 21.7895 16.9878 21.8744 16.8393 21.8744Z" fill="#A9C0FF" stroke="#A9C0FF" stroke-width="0.5" stroke-miterlimit="10"/>
</svg>
