<svg width="14" height="13" viewBox="0 0 14 13" fill="none" xmlns="http://www.w3.org/2000/svg">
<path d="M12.9919 6.24976H1.78078C1.33926 6.24976 0.97998 6.59902 0.97998 7.02823C0.97998 7.45744 1.33926 7.8067 1.78078 7.8067H12.9919C13.4335 7.8067 13.7927 7.45744 13.7927 7.02823C13.7927 6.59902 13.4335 6.24976 12.9919 6.24976Z" fill="#0093FF"/>
<path d="M13.0647 7.29742C12.92 7.25799 12.7748 7.3379 12.7348 7.47596L12.714 7.54707H2.05749L2.03614 7.47596C1.9961 7.3379 1.84983 7.25903 1.70621 7.29742C1.5642 7.33686 1.48251 7.48063 1.5231 7.61815L2.25876 10.1217C2.48671 10.8976 3.2256 11.4394 4.05522 11.4394H10.7152C11.5453 11.4394 12.2837 10.8976 12.5116 10.1217L13.2473 7.61815C13.2884 7.48061 13.2062 7.33686 13.0647 7.29742ZM4.05575 10.4014C3.7002 10.4014 3.38308 10.1695 3.28591 9.83678L2.93944 8.65661C2.89887 8.51855 2.98108 8.37531 3.12255 8.33588C3.26561 8.29645 3.41243 8.37687 3.45247 8.51442L3.79894 9.69458C3.83205 9.80513 3.93721 9.88297 4.05573 9.88297C4.20307 9.88297 4.32267 9.99923 4.32267 10.1425C4.32269 10.2857 4.2031 10.4014 4.05575 10.4014Z" fill="#0093FF"/>
<path d="M4.57007 10.9476C4.43822 10.8848 4.27858 10.9351 4.21184 11.0638L3.67799 12.1018C3.61232 12.23 3.6657 12.3857 3.79758 12.4501C3.83654 12.4687 3.87713 12.4776 3.91717 12.4776C4.01487 12.4776 4.10884 12.4252 4.15581 12.3338L4.68967 11.2959C4.75533 11.1676 4.70193 11.0119 4.57007 10.9476Z" fill="#0093FF"/>
<path d="M11.0959 12.1023L10.5621 11.0643C10.4959 10.9356 10.3357 10.8842 10.2038 10.948C10.072 11.0124 10.0186 11.1681 10.0842 11.2963L10.6181 12.3343C10.6651 12.4251 10.759 12.4775 10.8567 12.4775C10.8968 12.4775 10.9373 12.4687 10.9763 12.4505C11.1082 12.3862 11.1616 12.2305 11.0959 12.1023Z" fill="#0093FF"/>
<path d="M11.7037 0.0681152C11.4314 0.0681152 11.1752 0.171385 10.9824 0.358753L10.1352 1.18238C10.0311 1.28358 10.0311 1.44811 10.1352 1.54931C10.2393 1.65051 10.4086 1.65051 10.5127 1.54931L11.3599 0.726193C11.4512 0.636936 11.5734 0.587625 11.7063 0.587625C11.9743 0.587625 12.1922 0.799369 12.1922 1.05989V6.5092C12.1922 6.65244 12.3117 6.7687 12.4591 6.7687C12.6064 6.7687 12.726 6.65244 12.7266 6.50869V1.05938C12.7266 0.512891 12.2696 0.0681152 11.7037 0.0681152Z" fill="#0093FF"/>
<path d="M10.7783 1.44191L10.2445 0.92294C10.1836 0.863776 10.0987 0.836262 10.0122 0.850275L8.6776 1.06307C8.57937 1.07864 8.49874 1.14609 8.46726 1.23744C8.43575 1.32879 8.45978 1.43051 8.5292 1.49952L10.1308 3.10318C10.1815 3.15456 10.2514 3.18207 10.3219 3.18207C10.347 3.18207 10.3726 3.17845 10.3977 3.17117C10.4927 3.14419 10.5648 3.0679 10.584 2.97344L10.851 1.67599C10.8686 1.59138 10.8413 1.50366 10.7783 1.44191Z" fill="#0093FF"/>
<path d="M7.30726 3.21238C7.20315 3.11117 7.03391 3.11117 6.92981 3.21238L6.39595 3.73135C6.29185 3.83255 6.29185 3.99708 6.39595 4.09828C6.44828 4.14861 6.51659 4.17406 6.58494 4.17406C6.65328 4.17406 6.7216 4.14864 6.7734 4.09828L7.30726 3.5793C7.41136 3.47808 7.41136 3.31358 7.30726 3.21238Z" fill="#0093FF"/>
<path d="M8.37562 4.24997C8.27151 4.14877 8.10227 4.14877 7.99816 4.24997L7.46431 4.76895C7.3602 4.87015 7.3602 5.03467 7.46431 5.13588C7.51664 5.18621 7.58495 5.21166 7.6533 5.21166C7.72164 5.21166 7.78996 5.18623 7.84176 5.13588L8.37562 4.6169C8.47972 4.5157 8.47972 4.35117 8.37562 4.24997Z" fill="#0093FF"/>
<path d="M8.90931 2.6926C8.8052 2.5914 8.63596 2.5914 8.53186 2.6926L7.998 3.21157C7.8939 3.31278 7.8939 3.4773 7.998 3.5785C8.05033 3.62884 8.11864 3.65428 8.18699 3.65428C8.25533 3.65428 8.32365 3.62886 8.37545 3.5785L8.90931 3.05953C9.01341 2.95833 9.01341 2.7938 8.90931 2.6926Z" fill="#0093FF"/>
</svg>
