<svg width="21" height="21" viewBox="0 0 21 21" fill="none" xmlns="http://www.w3.org/2000/svg">
<path d="M9.17455 20.2C8.88455 20.2 8.59455 20.15 8.32455 20.05C7.07455 19.64 6.27455 18.26 6.55455 16.98L7.04455 13.83C7.05455 13.76 7.05455 13.66 6.98455 13.58C6.93455 13.53 6.86455 13.5 6.78455 13.5H2.78456C1.80456 13.5 0.954553 13.09 0.454553 12.38C-0.0354466 11.69 -0.135451 10.78 0.184549 9.9L2.57455 2.62C2.94455 1.17 4.49455 0 6.09455 0H9.89455C10.4545 0 11.6745 0.17 12.3245 0.82L15.3546 3.16L14.4345 4.35L11.3346 1.95C11.0846 1.7 10.4545 1.5 9.89455 1.5H6.09455C5.19455 1.5 4.22455 2.22 4.02455 3.03L1.60455 10.38C1.44455 10.82 1.47455 11.22 1.68455 11.51C1.90455 11.82 2.30455 12 2.79455 12H6.79455C7.31455 12 7.79455 12.22 8.12455 12.6C8.46455 12.99 8.61456 13.51 8.53456 14.05L8.03456 17.26C7.91456 17.82 8.29455 18.45 8.83455 18.63C9.31455 18.81 9.95455 18.55 10.1746 18.23L14.2746 12.13L15.5146 12.97L11.4146 19.07C10.9446 19.77 10.0546 20.2 9.17455 20.2Z" fill="#292D32"/>
<path d="M17.9946 16.1996H16.9946C15.1446 16.1996 14.2446 15.3296 14.2446 13.5496V3.74961C14.2446 1.96961 15.1446 1.09961 16.9946 1.09961H17.9946C19.8446 1.09961 20.7446 1.96961 20.7446 3.74961V13.5496C20.7446 15.3296 19.8446 16.1996 17.9946 16.1996ZM16.9946 2.59961C15.9046 2.59961 15.7446 2.85961 15.7446 3.74961V13.5496C15.7446 14.4396 15.9046 14.6996 16.9946 14.6996H17.9946C19.0846 14.6996 19.2446 14.4396 19.2446 13.5496V3.74961C19.2446 2.85961 19.0846 2.59961 17.9946 2.59961H16.9946Z" fill="#292D32"/>
</svg>
