<svg xmlns="http://www.w3.org/2000/svg" width="16" height="15.114" viewBox="0 0 16 15.114">
  <path id="filter" d="M11.523,23.114a.593.593,0,0,1-.593-.593v-5.7L5.436,10.78A1.662,1.662,0,0,1,6.666,8H19.343a1.662,1.662,0,0,1,1.23,2.78l-5.494,6.042V20.15a.593.593,0,0,1-.222.462l-2.963,2.371A.593.593,0,0,1,11.523,23.114ZM6.666,9.185a.477.477,0,0,0-.353.8l5.648,6.223a.593.593,0,0,1,.154.388v4.694l1.778-1.434v-3.26a.593.593,0,0,1,.154-.4L19.7,9.971a.477.477,0,0,0-.353-.785Z" transform="translate(-5.004 -8)" fill="#48b581"/>
</svg>
