<svg width="14" height="13" viewBox="0 0 14 13" fill="none" xmlns="http://www.w3.org/2000/svg">
<path d="M4.16711 12.3451C4.06939 12.4088 3.94983 12.433 3.83395 12.4125C3.71807 12.3921 3.61504 12.3285 3.54686 12.2355C3.51386 12.1883 3.49097 12.1352 3.47955 12.0794C3.46812 12.0235 3.4684 11.9659 3.48037 11.9102C3.49233 11.8544 3.51574 11.8015 3.5492 11.7547C3.58266 11.7078 3.6255 11.6679 3.67517 11.6374L5.97341 10.21L6.6227 10.6562L4.16711 12.3451ZM10.5571 11.9103C10.575 11.9944 10.5664 12.0817 10.5324 12.1609C10.4983 12.2402 10.4405 12.3076 10.3663 12.3546C10.2922 12.4016 10.2051 12.4258 10.1165 12.4242C10.0279 12.4226 9.9419 12.3952 9.86961 12.3456L3.45698 7.93762C3.41788 7.91077 3.37106 7.89649 3.32312 7.89681C3.27519 7.89713 3.22857 7.91203 3.18986 7.9394C2.91892 8.11065 2.60037 8.19749 2.27698 8.18827C1.95359 8.17904 1.64087 8.07419 1.38081 7.88778C1.03091 7.6655 0.776098 7.32789 0.663594 6.93753C0.609761 6.76701 0.595972 6.58699 0.623237 6.41064C0.650501 6.2343 0.71813 6.06609 0.821174 5.91832C0.924217 5.77055 1.06007 5.64696 1.21879 5.5566C1.37751 5.46625 1.55508 5.4114 1.7385 5.39608C2.15429 5.35088 2.57291 5.45318 2.91678 5.68403C3.19244 5.8479 3.40974 6.08952 3.5395 6.37647C3.66926 6.66341 3.70527 6.98194 3.64269 7.28928C3.63093 7.33433 3.6341 7.38182 3.65175 7.42503C3.6694 7.46824 3.70063 7.50498 3.74103 7.53005L10.3629 11.6372C10.4126 11.6677 10.4554 11.7077 10.4888 11.7546C10.5221 11.8015 10.5454 11.8545 10.5571 11.9103ZM12.6566 7.88734C12.3965 8.0737 12.0837 8.17848 11.7602 8.18763C11.4368 8.19678 11.1182 8.10984 10.8473 7.93851C10.8086 7.91114 10.762 7.89624 10.714 7.89593C10.6661 7.89561 10.6193 7.90988 10.5802 7.93674L8.05004 9.67644L7.44352 9.29988L10.2964 7.52784C10.3367 7.5028 10.3678 7.46613 10.3855 7.42301C10.4031 7.37989 10.4064 7.33249 10.3947 7.28751C10.3334 6.98011 10.3701 6.66193 10.4999 6.3752C10.6297 6.08848 10.8465 5.8468 11.1215 5.68226C11.8534 5.20448 12.7943 5.30991 13.2171 5.91661C13.64 6.52332 13.3882 7.40956 12.6566 7.88734Z" fill="#0093FF"/>
<path d="M4.91964 6.93464L4.82816 6.49163H9.21013L9.11864 6.93464H4.91964ZM4.04599 0.510996C4.26394 0.510455 4.47967 0.553451 4.67969 0.637298C4.87971 0.721145 5.05973 0.84404 5.2085 0.998307C5.23392 1.02434 5.26548 1.04402 5.30047 1.05564C5.33547 1.06726 5.37285 1.07049 5.40942 1.06505C5.44599 1.0596 5.48065 1.04565 5.51042 1.02438C5.54019 1.00311 5.5642 0.975159 5.58037 0.942931C5.71102 0.680875 5.91531 0.45981 6.16981 0.305114C6.4243 0.150417 6.71868 0.0683594 7.01914 0.0683594C7.31961 0.0683594 7.61398 0.150417 7.86848 0.305114C8.12297 0.45981 8.32727 0.680875 8.45792 0.942931C8.47409 0.975159 8.49809 1.00311 8.52786 1.02438C8.55764 1.04565 8.5923 1.0596 8.62886 1.06505C8.66543 1.07049 8.70282 1.06726 8.73781 1.05564C8.77281 1.04402 8.80437 1.02434 8.82979 0.998307C8.97856 0.84404 9.15858 0.721145 9.3586 0.637298C9.55862 0.553451 9.77434 0.510455 9.99229 0.510996C10.4169 0.510996 10.8241 0.674356 11.1243 0.965137C11.4246 1.25592 11.5932 1.6503 11.5932 2.06153C11.5932 2.47276 11.4246 2.86714 11.1243 3.15792C10.8241 3.44871 10.4169 3.61206 9.99229 3.61206C9.93957 3.61205 9.88846 3.62969 9.84762 3.66198C9.80678 3.69427 9.77871 3.73924 9.76816 3.78927L9.30161 6.04862H8.42636L8.61778 4.75104L8.16495 4.68814L7.96438 6.04862H7.24785V3.61206H6.79044V6.04862H6.07391L5.87334 4.68814L5.4205 4.75104L5.61193 6.04862H4.73668L4.27012 3.78927C4.25958 3.73924 4.23151 3.69427 4.19067 3.66198C4.14983 3.62969 4.09872 3.61205 4.04599 3.61206C3.6214 3.61206 3.2142 3.44871 2.91397 3.15792C2.61374 2.86714 2.44507 2.47276 2.44507 2.06153C2.44507 1.6503 2.61374 1.25592 2.91397 0.965137C3.2142 0.674356 3.6214 0.510996 4.04599 0.510996Z" fill="#0093FF"/>
</svg>
