<svg width="27" height="25" viewBox="0 0 27 25" fill="none" xmlns="http://www.w3.org/2000/svg">
<path d="M16.2341 6.67842C16.2341 5.65319 15.4139 4.83301 14.3886 4.83301C14.2861 4.83301 14.2178 4.90136 14.2178 5.00388C14.2178 5.1064 14.2861 5.17475 14.3886 5.17475C15.2088 5.17475 15.8923 5.85824 15.8923 6.67842C15.8923 6.78094 15.9607 6.84929 16.0632 6.84929C16.1657 6.84929 16.2341 6.74677 16.2341 6.67842Z" fill="#A9C0FF"/>
<path d="M20.0275 6.40469C19.8908 3.49988 17.5328 1.10768 14.628 1.00516C11.3814 0.868463 8.71582 3.46571 8.71582 6.67809C8.71582 7.49827 8.88669 8.2501 9.19426 8.93359C9.29678 9.13863 11.9282 13.9914 13.3977 16.6911C13.8078 17.4771 14.9355 17.4771 15.3456 16.6911C16.1316 15.2558 17.2252 13.2054 18.1137 11.5992C18.1479 11.5308 18.1479 11.4625 18.0796 11.4283L16.7468 10.0955C16.7126 10.0613 16.7126 9.99299 16.7468 9.95881L17.6353 9.07028C17.6695 9.03611 17.7378 9.03611 17.772 9.07028L18.7289 10.0272C18.7972 10.0955 18.9339 10.0955 18.9681 9.99299C19.2757 9.41203 19.4807 9.00194 19.5149 8.96776C19.8908 8.14758 20.0617 7.3274 20.0275 6.40469ZM14.3887 9.13863C13.0218 9.13863 11.9282 8.04506 11.9282 6.67809C11.9282 5.31112 13.0218 4.21754 14.3887 4.21754C15.7557 4.21754 16.8493 5.31112 16.8493 6.67809C16.8493 8.04506 15.7557 9.13863 14.3887 9.13863ZM16.4734 9.75377L16.2 9.48037C16.0291 9.3095 16.0291 9.00194 16.2 8.83106L16.5759 8.45515C16.7468 8.28428 17.0543 8.28428 17.2252 8.45515L17.4986 8.72854C17.5328 8.76271 17.5328 8.83106 17.4986 8.86524L16.6101 9.75377C16.5759 9.78794 16.5076 9.78794 16.4734 9.75377Z" fill="#A9C0FF"/>
<path d="M14.5 18.7676C15.6046 18.7676 16.5 18.5437 16.5 18.2676C16.5 17.9914 15.6046 17.7676 14.5 17.7676C13.3954 17.7676 12.5 17.9914 12.5 18.2676C12.5 18.5437 13.3954 18.7676 14.5 18.7676Z" fill="#A9C0FF"/>
<path d="M26.4866 24.3252L21.9756 13.4351C21.9414 13.333 21.8731 13.265 21.7705 13.265L18.4556 12.4822C18.3873 12.4822 18.3531 12.4822 18.3189 12.5503C18.2506 12.6524 18.2164 12.7545 18.1481 12.8566C18.1139 12.9246 18.1481 13.0267 18.2164 13.0608L21.4972 13.8435L25.6664 23.9168L19.515 21.2623L17.6013 14.388C17.5671 14.2859 17.4304 14.2519 17.3621 14.354C17.2937 14.4901 17.1912 14.6262 17.1228 14.7964C17.1228 14.8304 17.0887 14.8644 17.1228 14.8985L18.8999 21.2964L9.74121 24.0529L10.9715 20.2074L12.2359 16.1236C12.2701 15.9875 12.2701 15.8173 12.2018 15.7152C12.0992 15.5451 11.9967 15.3749 11.9284 15.2048L11.2449 17.3828L9.05772 24.0529L1.23181 21.2964L6.87057 12.4482L11.86 15.1707C11.6891 14.8985 11.5524 14.5922 11.4157 14.354C11.3816 14.2519 11.279 14.1838 11.2107 14.1498L6.90474 11.8016C6.76805 11.7335 6.59717 11.7676 6.49465 11.9037L0.54833 21.2964C0.514156 21.3644 0.479981 21.4665 0.514155 21.5686C0.54833 21.6707 0.616678 21.7388 0.685027 21.7388L9.16024 24.7335H9.19442C9.19442 24.7335 9.19442 24.7335 9.22859 24.7335C9.26277 24.7335 9.26277 24.7335 9.29694 24.7335C9.33111 24.7335 9.33112 24.7335 9.36529 24.7335L19.2417 21.7728L26.1107 24.7335C26.1449 24.7335 26.179 24.7676 26.2132 24.7676C26.2815 24.7676 26.3499 24.7335 26.4182 24.6655C26.4866 24.5634 26.5208 24.4273 26.4866 24.3252Z" fill="#A9C0FF"/>
</svg>
