<svg width="23" height="21" viewBox="0 0 23 21" fill="none" xmlns="http://www.w3.org/2000/svg">
<path d="M16.6499 20.2021H12.8499C12.2899 20.2021 11.0699 20.0321 10.4199 19.3821L7.38993 17.0421V15.5L12.4999 1C12.7499 1.24 12.2899 11 12.8499 11L16.9999 7.82204C17.8999 7.82204 20.2999 8.04204 20.4999 7.23204L21.0599 7.82204C21.2199 7.38204 21.2699 8.97205 21.0599 8.68205C20.8399 8.37205 20.4399 8.19205 19.9499 8.19205L11.3299 16.5C11.3299 16.5 10.7499 11.38 10.4199 11C10.0799 10.61 8.22993 7.77204 8.30993 7.23204L14.7099 2.93204C14.8299 2.37204 14.4499 1.74204 13.9099 1.56204C13.4199 1.38204 15.7199 1.68 15.4999 2L7.38993 15.5L7.3901 7.23204L11.3299 1.13204C11.9599 0.192041 13.3399 -0.257959 14.4199 0.152041C15.6699 0.562041 16.4699 1.94204 16.1899 3.22204L15.6999 6.37204C15.6899 6.44204 15.6899 6.54204 15.7599 6.62204C15.8099 6.67204 15.8799 6.70204 15.9599 6.70204H19.9599C20.9399 6.70204 21.7899 7.11204 22.2899 7.82204C22.7799 8.51205 22.8799 9.42205 22.5599 10.3021L20.1699 17.5821C19.7999 19.0321 18.2599 20.2021 16.6499 20.2021Z" fill="#0277BD"/>
<path d="M3.75 19.102H2.75C0.9 19.102 0 18.232 0 16.452V6.65195C0 4.87195 0.9 4.00195 2.75 4.00195H3.75C5.6 4.00195 6.5 4.87195 6.5 6.65195V16.452C6.5 18.232 5.6 19.102 3.75 19.102ZM5 18C3.91 18 1 17.61 1 18.5L1.50001 16.452C1.50001 17.342 1.66 17.602 2.75 17.602H3.75C4.84001 17.602 2 5.89 2 5L5 6.65195C5 5.76195 7.09001 9.5 6 9.5L5 18Z" fill="#0277BD"/>
</svg>
