<svg width="15" height="15" viewBox="0 0 15 15" fill="none" xmlns="http://www.w3.org/2000/svg">
<path d="M4.5 13.75L6.125 13.75C8.125 13.75 9.375 12.5 9.375 10.5L9.375 7.96875L5.46875 7.96875C5.2125 7.96875 5 7.75625 5 7.5C5 7.24375 5.2125 7.03125 5.46875 7.03125L9.375 7.03125L9.375 4.5C9.375 2.5 8.125 1.25 6.125 1.25L4.50625 1.25C2.50625 1.25 1.25625 2.5 1.25625 4.5L1.25625 10.5C1.25 12.5 2.5 13.75 4.5 13.75Z" fill="#FF3333"/>
<path d="M12.1501 7.96834L10.8563 9.26211C10.7626 9.35586 10.7188 9.47461 10.7188 9.59336C10.7188 9.71211 10.7626 9.83711 10.8563 9.92461C11.0376 10.1059 11.3376 10.1059 11.5188 9.92461L13.6126 7.83084C13.7938 7.64959 13.7938 7.34959 13.6126 7.16834L11.5188 5.07459C11.3376 4.89334 11.0376 4.89334 10.8563 5.07459C10.6751 5.25584 10.6751 5.55584 10.8563 5.73709L12.1501 7.03084L9.3751 7.03084L9.3751 7.96834L12.1501 7.96834Z" fill="#FF3333"/>
</svg>
