<svg width="22" height="24" viewBox="0 0 22 24" fill="none" xmlns="http://www.w3.org/2000/svg">
<path d="M8.8728 22.4957H13.2125C18.6371 22.4957 20.807 20.4163 20.807 15.218V8.97989C20.807 3.7815 18.6371 1.70215 13.2125 1.70215H8.8728C3.44817 1.70215 1.27832 3.7815 1.27832 8.97989V15.218C1.27832 20.4163 3.44817 22.4957 8.8728 22.4957Z" stroke="#0277BD" stroke-width="2" stroke-linecap="round" stroke-linejoin="round"/>
<path d="M15.9245 7.50483V8.54451C15.9245 9.39704 15.1976 10.104 14.2971 10.104H7.78754C6.89791 10.104 6.16016 9.40744 6.16016 8.54451V7.50483C6.16016 6.65229 6.88706 5.94531 7.78754 5.94531H14.2971C15.1976 5.94531 15.9245 6.6419 15.9245 7.50483Z" stroke="#0277BD" stroke-width="2" stroke-linecap="round" stroke-linejoin="round"/>
<path d="M6.85059 14.1777H6.86441" stroke="#0277BD" stroke-width="2" stroke-linecap="round" stroke-linejoin="round"/>
<path d="M11.2373 14.0332H11.2511" stroke="#0277BD" stroke-width="2" stroke-linecap="round" stroke-linejoin="round"/>
<path d="M15.2236 14.1777H15.2374" stroke="#0277BD" stroke-width="2" stroke-linecap="round" stroke-linejoin="round"/>
<path d="M6.85059 17.8164H6.86441" stroke="#0277BD" stroke-width="2" stroke-linecap="round" stroke-linejoin="round"/>
<path d="M11.0381 17.8164H11.0519" stroke="#0277BD" stroke-width="2" stroke-linecap="round" stroke-linejoin="round"/>
<path d="M15.2236 17.8164H15.2374" stroke="#0277BD" stroke-width="2" stroke-linecap="round" stroke-linejoin="round"/>
</svg>
