<svg width="25" height="25" viewBox="0 0 25 25" fill="none" xmlns="http://www.w3.org/2000/svg">
<path d="M23.5004 15.86V9.39143C23.5004 4.00093 21.2504 1.84473 15.6253 1.84473H8.87515C3.25004 1.84473 1 4.00093 1 9.39143V15.86C1 21.2505 3.25004 23.4067 8.87515 23.4067H15.6253C21.2504 23.4067 23.5004 21.2505 23.5004 15.86Z" stroke="#0277BD" stroke-width="2" stroke-linecap="round" stroke-linejoin="round"/>
<path d="M2.07129 7.49219H22.9645" stroke="#0277BD" stroke-width="2" stroke-linecap="round" stroke-linejoin="round"/>
<path d="M8.5 2.3584V7.49221" stroke="#0277BD" stroke-width="2" stroke-linecap="round" stroke-linejoin="round"/>
<path d="M16 2.3584V6.97883" stroke="#0277BD" stroke-width="2" stroke-linecap="round" stroke-linejoin="round"/>
<path d="M10.1074 15.1926V13.9305C10.1074 12.3107 11.2758 11.6481 12.7015 12.458L13.8163 13.089L14.9311 13.7201C16.3568 14.53 16.3568 15.8552 14.9311 16.6651L13.8163 17.2962L12.7015 17.9272C11.2758 18.7371 10.1074 18.0745 10.1074 16.4547V15.1926Z" stroke="#0277BD" stroke-width="2" stroke-miterlimit="10" stroke-linecap="round" stroke-linejoin="round"/>
</svg>
