<svg width="22" height="23" viewBox="0 0 22 23" fill="none" xmlns="http://www.w3.org/2000/svg">
<path d="M20.8067 18.4131V4.58038C20.8067 2.60427 19.7756 1.61621 17.7135 1.61621H13.5893C11.5272 1.61621 10.4961 2.60427 10.4961 4.58038V18.4131C10.4961 20.3893 11.5272 21.3773 13.5893 21.3773H17.7135C19.7756 21.3773 20.8067 20.3893 20.8067 18.4131Z" stroke="#0277BD" stroke-width="2" stroke-linecap="round"/>
<path d="M10.4961 5.56836H15.6514" stroke="#0277BD" stroke-width="2" stroke-linecap="round"/>
<path d="M10.4961 17.4248H14.6203" stroke="#0277BD" stroke-width="2" stroke-linecap="round"/>
<path d="M10.4961 13.4229L15.6514 13.4724" stroke="#0277BD" stroke-width="2" stroke-linecap="round"/>
<path d="M10.4961 9.52051H13.5893" stroke="#0277BD" stroke-width="2" stroke-linecap="round"/>
<path d="M4.33024 1.61621C2.64962 1.61621 1.27832 2.93032 1.27832 4.53097V17.3362C1.27832 17.7808 1.47422 18.4527 1.71136 18.838L2.55683 20.1818C3.52602 21.733 5.12416 21.733 6.09336 20.1818L6.93882 18.838C7.17597 18.4527 7.37187 17.7808 7.37187 17.3362V4.53097C7.37187 2.93032 6.00055 1.61621 4.33024 1.61621Z" stroke="#0277BD" stroke-width="2" stroke-linecap="round"/>
<path d="M7.37187 6.55664H1.27832" stroke="#0277BD" stroke-width="2" stroke-linecap="round"/>
</svg>
