<svg width="25" height="24" viewBox="0 0 25 24" fill="none" xmlns="http://www.w3.org/2000/svg">
<path d="M17.2531 19.442H6.92392C6.4624 19.442 5.94594 19.0945 5.7921 18.6733L1.24287 6.47929C0.594563 4.73128 1.35277 4.19424 2.91313 5.26832L7.19863 8.20624C7.91288 8.6801 8.72603 8.43791 9.0337 7.6692L10.9677 2.73054C11.5831 1.15102 12.605 1.15102 13.2204 2.73054L15.1543 7.6692C15.462 8.43791 16.2752 8.6801 16.9784 8.20624L21.0002 5.45786C22.7144 4.27848 23.5386 4.8787 22.8353 6.78467L18.3959 18.6943C18.2311 19.0945 17.7147 19.442 17.2531 19.442Z" stroke="#0277BD" stroke-width="2" stroke-linecap="round" stroke-linejoin="round"/>
<path d="M6.04492 22.6221H18.1322" stroke="#0277BD" stroke-width="2" stroke-linecap="round" stroke-linejoin="round"/>
<path d="M9.3418 14.1982H14.836" stroke="#0277BD" stroke-width="2" stroke-linecap="round" stroke-linejoin="round"/>
</svg>
