<svg width="24" height="23" viewBox="0 0 24 23" fill="none" xmlns="http://www.w3.org/2000/svg">
<path d="M12.5919 21.0792H3.83426C2.62774 21.0792 1.63965 20.1523 1.63965 19.016V4.22474C1.63965 1.61334 3.66784 0.427241 6.15368 1.5934L10.7717 3.76625C11.7702 4.23471 12.5919 5.48061 12.5919 6.53714V21.0792Z" stroke="#0277BD" stroke-width="2" stroke-linecap="round" stroke-linejoin="round"/>
<path d="M22.4415 14.1619V17.9295C22.4415 20.0824 21.4014 21.0791 19.1548 21.0791H12.5918V9.53711L13.0806 9.63678L17.7611 10.6435L19.8725 11.092C21.2454 11.381 22.3687 12.0588 22.4311 13.9725C22.4415 14.0323 22.4415 14.0921 22.4415 14.1619Z" stroke="#0277BD" stroke-width="2" stroke-linecap="round" stroke-linejoin="round"/>
<path d="M5.31152 8.12109H8.92067" stroke="#0277BD" stroke-width="2" stroke-linecap="round" stroke-linejoin="round"/>
<path d="M5.31152 12.1084H8.92067" stroke="#0277BD" stroke-width="2" stroke-linecap="round" stroke-linejoin="round"/>
<path d="M17.7615 10.6424V13.8519C17.7615 15.0878 16.711 16.0945 15.4213 16.0945C14.1316 16.0945 13.0811 15.0878 13.0811 13.8519V9.63574L17.7615 10.6424Z" stroke="#0277BD" stroke-width="2" stroke-linecap="round" stroke-linejoin="round"/>
<path d="M22.4308 13.9716C22.3684 15.1478 21.3491 16.0946 20.101 16.0946C18.8112 16.0946 17.7607 15.088 17.7607 13.852V10.6426L19.8721 11.0911C21.2451 11.3802 22.3684 12.0579 22.4308 13.9716Z" stroke="#0277BD" stroke-width="2" stroke-linecap="round" stroke-linejoin="round"/>
</svg>
