<svg id="_02.twitter" data-name="02.twitter" xmlns="http://www.w3.org/2000/svg" width="36" height="36" viewBox="0 0 36 36">
  <circle id="background" cx="18" cy="18" r="18" transform="translate(0 0)" fill="#00a6de"/>
  <path id="icon" d="M54.88,46.548a7.74,7.74,0,0,1-1.449,1.779.728.728,0,0,0-.223.54v.062a12.539,12.539,0,0,1-.654,3.947,11.908,11.908,0,0,1-1.925,3.608,9.265,9.265,0,0,1-7.452,3.653,9.214,9.214,0,0,1-5.028-1.515.339.339,0,0,1-.139-.359.285.285,0,0,1,.271-.234h.423a6.235,6.235,0,0,0,3.769-1.279,3.8,3.8,0,0,1-2.893-2.777.233.233,0,0,1,.04-.21A.179.179,0,0,1,39.8,53.7a3.012,3.012,0,0,0,.614.065H40.5A4.148,4.148,0,0,1,38.367,50a.22.22,0,0,1,.094-.183.174.174,0,0,1,.189,0,3.018,3.018,0,0,0,.832.361,4.453,4.453,0,0,1-.59-4.957.191.191,0,0,1,.15-.107.182.182,0,0,1,.164.077,9.307,9.307,0,0,0,6.566,3.927h.018a.132.132,0,0,0,.1-.051.166.166,0,0,0,.035-.115,4.818,4.818,0,0,1,.085-1.493,3.812,3.812,0,0,1,2.381-2.847,3.535,3.535,0,0,1,1.155-.2,3.428,3.428,0,0,1,2.412,1.018.445.445,0,0,0,.314.134.431.431,0,0,0,.111-.017,6.305,6.305,0,0,0,1.78-.824.173.173,0,0,1,.217.015.227.227,0,0,1,.061.234,4.131,4.131,0,0,1-.959,1.71,6.244,6.244,0,0,0,1.166-.44.178.178,0,0,1,.215.061A.234.234,0,0,1,54.88,46.548Z" transform="translate(-28.664 -34.189)" fill="#fff"/>
</svg>
