<svg width="14" height="11" viewBox="0 0 14 11" fill="none" xmlns="http://www.w3.org/2000/svg">
<path d="M1.52222 4.87093C1.52222 3.0457 1.52222 2.13308 2.08925 1.56605C2.65627 0.999023 3.56889 0.999023 5.39412 0.999023H5.94725C7.77247 0.999023 8.68507 0.999023 9.25214 1.56605C9.81915 2.13308 9.81915 3.0457 9.81915 4.87093V5.97719C9.81915 7.8024 9.81915 8.71501 9.25214 9.28208C8.68507 9.84909 7.77247 9.84909 5.94725 9.84909H5.39412C3.56889 9.84909 2.65627 9.84909 2.08925 9.28208C1.52222 8.71501 1.52222 7.8024 1.52222 5.97719V4.87093Z" fill="#0093FF" stroke="#0093FF" stroke-width="1.5"/>
<path d="M9.81921 3.71258L9.88885 3.65512C11.0592 2.6895 11.6443 2.20669 12.1146 2.43982C12.5849 2.67294 12.5849 3.44581 12.5849 4.99156V5.85654C12.5849 7.40231 12.5849 8.17515 12.1146 8.40829C11.6443 8.64138 11.0592 8.15861 9.88885 7.19296L9.81921 7.13549" fill="#0093FF"/>
<path d="M9.81921 3.71258L9.88885 3.65512C11.0592 2.6895 11.6443 2.20669 12.1146 2.43982C12.5849 2.67294 12.5849 3.44581 12.5849 4.99156V5.85654C12.5849 7.40231 12.5849 8.17515 12.1146 8.40829C11.6443 8.64138 11.0592 8.15861 9.88885 7.19296L9.81921 7.13549" stroke="#0093FF" stroke-width="1.5" stroke-linecap="round"/>
<path d="M6.77696 4.8713C7.23519 4.8713 7.60665 4.49983 7.60665 4.04161C7.60665 3.58338 7.23519 3.21191 6.77696 3.21191C6.31873 3.21191 5.94727 3.58338 5.94727 4.04161C5.94727 4.49983 6.31873 4.8713 6.77696 4.8713Z" fill="white" stroke="white" stroke-width="1.5"/>
</svg>
