<svg width="24" height="24" viewBox="0 0 24 24" fill="none" xmlns="http://www.w3.org/2000/svg">
<g clip-path="url(#clip0_552_10195)">
<path opacity="0.58" d="M24 0H0V24H24V0Z" fill="white"/>
<path opacity="0.4" d="M6.9403 20.6295C8.4303 21.4995 10.1603 21.9995 12.0003 21.9995C17.6303 21.9995 22.3103 17.0295 21.9803 11.4095C21.6403 5.60948 16.3703 1.13947 10.3003 2.13947C6.12029 2.82947 2.77029 6.21947 2.12029 10.3995C1.74029 12.8195 2.24031 15.1095 3.33031 16.9995L2.4403 20.3095C2.2403 21.0595 2.93028 21.7395 3.67028 21.5295L6.9403 20.6295Z" fill="#0093FF"/>
<path d="M17 15.1695C17 15.3495 16.96 15.5395 16.87 15.7195C16.78 15.8995 16.67 16.0695 16.53 16.2295C16.28 16.4995 16.01 16.6995 15.71 16.8195C15.41 16.9495 15.08 17.0095 14.73 17.0095C14.22 17.0095 13.67 16.8895 13.1 16.6395C12.52 16.3895 11.95 16.0595 11.38 15.6495C10.8 15.2295 10.26 14.7595 9.73999 14.2495C9.21999 13.7295 8.76003 13.1795 8.34003 12.6095C7.93003 12.0395 7.59999 11.4695 7.35999 10.8995C7.11999 10.3295 7 9.77949 7 9.25949C7 8.91949 7.05999 8.58949 7.17999 8.28949C7.29999 7.97949 7.49001 7.69948 7.76001 7.44948C8.08001 7.12948 8.42999 6.97949 8.79999 6.97949C8.93999 6.97949 9.08002 7.00949 9.21002 7.06949C9.34002 7.12949 9.45999 7.21949 9.54999 7.34949L10.7 8.99949C10.79 9.12949 10.86 9.23949 10.9 9.34949C10.95 9.45949 10.97 9.55949 10.97 9.65949C10.97 9.77949 10.93 9.89948 10.86 10.0195C10.79 10.1395 10.7 10.2595 10.58 10.3795L10.2 10.7795C10.14 10.8395 10.12 10.8995 10.12 10.9795C10.12 11.0195 10.13 11.0595 10.14 11.0995C10.16 11.1395 10.17 11.1695 10.18 11.1995C10.27 11.3695 10.43 11.5795 10.65 11.8395C10.88 12.0995 11.12 12.3695 11.38 12.6295C11.65 12.8995 11.91 13.1395 12.18 13.3695C12.44 13.5895 12.66 13.7395 12.83 13.8295C12.86 13.8395 12.89 13.8595 12.92 13.8695C12.96 13.8895 13 13.8895 13.05 13.8895C13.14 13.8895 13.2 13.8595 13.26 13.7995L13.64 13.4195C13.77 13.2895 13.89 13.1995 14 13.1395C14.12 13.0695 14.23 13.0295 14.36 13.0295C14.46 13.0295 14.56 13.0495 14.67 13.0995C14.78 13.1495 14.9 13.2095 15.02 13.2995L16.68 14.4795C16.81 14.5695 16.9 14.6795 16.96 14.7995C16.97 14.9095 17 15.0295 17 15.1695Z" fill="#0093FF"/>
</g>
<defs>
<clipPath id="clip0_552_10195">
<rect width="24" height="24" fill="white"/>
</clipPath>
</defs>
</svg>
